<?xml version="1.0" standalone="no"?><svg xmlns="http://www.w3.org/2000/svg" viewBox="0 0 1440 320"><path fill="#362FD9" fill-opacity="1" d="M0,128L0,224L68.6,224L68.6,128L137.1,128L137.1,64L205.7,64L205.7,320L274.3,320L274.3,192L342.9,192L342.9,96L411.4,96L411.4,128L480,128L480,160L548.6,160L548.6,224L617.1,224L617.1,64L685.7,64L685.7,128L754.3,128L754.3,256L822.9,256L822.9,64L891.4,64L891.4,160L960,160L960,160L1028.6,160L1028.6,128L1097.1,128L1097.1,128L1165.7,128L1165.7,256L1234.3,256L1234.3,224L1302.9,224L1302.9,256L1371.4,256L1371.4,256L1440,256L1440,320L1371.4,320L1371.4,320L1302.9,320L1302.9,320L1234.3,320L1234.3,320L1165.7,320L1165.7,320L1097.1,320L1097.1,320L1028.6,320L1028.6,320L960,320L960,320L891.4,320L891.4,320L822.9,320L822.9,320L754.3,320L754.3,320L685.7,320L685.7,320L617.1,320L617.1,320L548.6,320L548.6,320L480,320L480,320L411.4,320L411.4,320L342.9,320L342.9,320L274.3,320L274.3,320L205.7,320L205.7,320L137.1,320L137.1,320L68.6,320L68.6,320L0,320L0,320Z"></path></svg>